<svg width="20" height="20" viewBox="0 0 20 20" fill="none" xmlns="http://www.w3.org/2000/svg">
<g clip-path="url(#clip0_205_740)">
<path d="M15.9663 2.92893L10 8.89515L4.03383 2.92893C3.72873 2.62383 3.23408 2.62383 2.92898 2.92893C2.62387 3.23404 2.62387 3.72868 2.92898 4.03379L8.89519 10L2.92898 15.9662C2.62387 16.2713 2.62387 16.766 2.92898 17.0711C3.23408 17.3762 3.72873 17.3762 4.03383 17.0711L10 11.1049L15.9663 17.0711C16.2714 17.3762 16.766 17.3762 17.0711 17.0711C17.3762 16.766 17.3762 16.2713 17.0711 15.9662L11.1049 10L17.0711 4.03379C17.3762 3.72868 17.3762 3.23404 17.0711 2.92893C16.766 2.62383 16.2714 2.62383 15.9663 2.92893Z" fill="#0D0D0D"/>
</g>
<defs>
<clipPath id="clip0_205_740">
<rect width="20" height="20" fill="white"/>
</clipPath>
</defs>
</svg>
