<svg width="130" height="130" viewBox="0 0 130 130" fill="none" xmlns="http://www.w3.org/2000/svg">
<path d="M64.9998 20.3125C64.4611 20.3125 63.9445 20.0985 63.5635 19.7176C63.1826 19.3366 62.9686 18.82 62.9686 18.2812V6.09375C62.9686 5.55503 63.1826 5.03837 63.5635 4.65744C63.9445 4.27651 64.4611 4.0625 64.9998 4.0625C65.5386 4.0625 66.0552 4.27651 66.4361 4.65744C66.8171 5.03837 67.0311 5.55503 67.0311 6.09375V18.2812C67.0311 18.82 66.8171 19.3366 66.4361 19.7176C66.0552 20.0985 65.5386 20.3125 64.9998 20.3125ZM10.1561 97.5C9.66783 97.4998 9.19598 97.3237 8.82693 97.004C8.45789 96.6843 8.21634 96.2424 8.14653 95.7592C8.07672 95.2759 8.18332 94.7837 8.44679 94.3726C8.71027 93.9616 9.113 93.6592 9.58125 93.5208L19.902 90.4739C20.1592 90.3938 20.4297 90.3656 20.6978 90.3909C20.966 90.4163 21.2264 90.4948 21.4639 90.6217C21.7015 90.7487 21.9114 90.9216 22.0815 91.1305C22.2515 91.3393 22.3784 91.5799 22.4546 91.8382C22.5308 92.0966 22.5549 92.3675 22.5255 92.6352C22.4961 92.9029 22.4137 93.1621 22.2831 93.3977C22.1526 93.6333 21.9765 93.8406 21.7651 94.0075C21.5536 94.1744 21.3112 94.2975 21.0517 94.3698L10.7309 97.4167C10.5443 97.472 10.3507 97.5001 10.1561 97.5ZM34.5311 121.875C34.2152 121.875 33.9037 121.801 33.6213 121.66C33.339 121.518 33.0935 121.313 32.9044 121.06C32.7153 120.807 32.5878 120.513 32.532 120.202C32.4762 119.891 32.4937 119.572 32.5831 119.269L35.63 108.946C35.7827 108.429 36.1344 107.995 36.6077 107.737C37.0811 107.48 37.6372 107.421 38.1538 107.574C38.6705 107.727 39.1053 108.078 39.3626 108.552C39.6199 109.025 39.6787 109.581 39.5259 110.098L36.4791 120.419C36.355 120.839 36.0982 121.208 35.7472 121.471C35.3961 121.733 34.9695 121.875 34.5311 121.875ZM41.6405 20.4791C41.2836 20.4794 40.9329 20.3857 40.6237 20.2074C40.3145 20.0291 40.0578 19.7725 39.8794 19.4634L33.7856 8.90094C33.5205 8.43465 33.4506 7.88242 33.5911 7.36478C33.7317 6.84713 34.0713 6.40608 34.5358 6.13788C35.0003 5.86968 35.552 5.7961 36.0706 5.9332C36.5892 6.07031 37.0325 6.40696 37.3037 6.86969L43.3975 17.4322C43.5757 17.7408 43.6695 18.0909 43.6696 18.4473C43.6697 18.8037 43.5761 19.1538 43.398 19.4625C43.22 19.7713 42.9639 20.0277 42.6554 20.2061C42.3469 20.3846 41.9968 20.4787 41.6405 20.4791ZM88.3592 20.4791C88.0028 20.4787 87.6528 20.3846 87.3443 20.2061C87.0358 20.0277 86.7797 19.7713 86.6017 19.4625C86.4236 19.1538 86.33 18.8037 86.33 18.4473C86.3301 18.0909 86.424 17.7408 86.6022 17.4322L92.6959 6.86969C92.9672 6.40696 93.4105 6.07031 93.9291 5.9332C94.4476 5.7961 94.9994 5.86968 95.4639 6.13788C95.9284 6.40608 96.268 6.84713 96.4085 7.36478C96.5491 7.88242 96.4792 8.43465 96.2141 8.90094L90.1203 19.4634C89.9419 19.7725 89.6851 20.0291 89.376 20.2074C89.0668 20.3857 88.7161 20.4794 88.3592 20.4791ZM20.3123 111.719C19.9107 111.719 19.518 111.599 19.1841 111.376C18.8501 111.153 18.5898 110.836 18.4361 110.465C18.2824 110.094 18.2422 109.685 18.3205 109.291C18.3989 108.897 18.5923 108.535 18.8762 108.251L27.0012 100.126C27.3843 99.7564 27.8974 99.5517 28.43 99.5563C28.9626 99.5609 29.4721 99.7745 29.8487 100.151C30.2253 100.528 30.4389 101.037 30.4436 101.57C30.4482 102.102 30.2434 102.615 29.8734 102.999L21.7484 111.124C21.3676 111.505 20.851 111.719 20.3123 111.719ZM119.844 97.5C119.649 97.5001 119.455 97.472 119.269 97.4167L108.948 94.3698C108.689 94.2975 108.446 94.1744 108.235 94.0075C108.023 93.8406 107.847 93.6333 107.717 93.3977C107.586 93.1621 107.504 92.9029 107.474 92.6352C107.445 92.3675 107.469 92.0966 107.545 91.8382C107.621 91.5799 107.748 91.3393 107.918 91.1305C108.088 90.9216 108.298 90.7487 108.536 90.6217C108.773 90.4948 109.034 90.4163 109.302 90.3909C109.57 90.3656 109.841 90.3938 110.098 90.4739L120.418 93.5208C120.887 93.6592 121.289 93.9616 121.553 94.3726C121.816 94.7837 121.923 95.2759 121.853 95.7592C121.783 96.2424 121.542 96.6843 121.173 97.004C120.804 97.3237 120.332 97.4998 119.844 97.5ZM95.4686 121.875C95.0302 121.875 94.6036 121.733 94.2525 121.471C93.9014 121.208 93.6447 120.839 93.5206 120.419L90.4737 110.098C90.321 109.581 90.3798 109.025 90.6371 108.552C90.8944 108.078 91.3292 107.727 91.8458 107.574C92.3625 107.421 92.9186 107.48 93.3919 107.737C93.8652 107.995 94.2169 108.429 94.3697 108.946L97.4166 119.269C97.5059 119.572 97.5235 119.891 97.4677 120.202C97.4119 120.513 97.2844 120.807 97.0953 121.06C96.9062 121.313 96.6607 121.518 96.3783 121.66C96.0959 121.801 95.7844 121.875 95.4686 121.875ZM109.687 111.719C109.149 111.719 108.632 111.505 108.251 111.124L100.126 102.999C99.7562 102.615 99.5515 102.102 99.5561 101.57C99.5608 101.037 99.7744 100.528 100.151 100.151C100.528 99.7745 101.037 99.5609 101.57 99.5563C102.102 99.5517 102.615 99.7564 102.998 100.126L111.123 108.251C111.407 108.535 111.601 108.897 111.679 109.291C111.757 109.685 111.717 110.094 111.564 110.465C111.41 110.836 111.15 111.153 110.816 111.376C110.482 111.599 110.089 111.719 109.687 111.719ZM127.664 57.8297L107.351 25.3297C107.167 25.0385 106.912 24.7985 106.61 24.6317C106.308 24.4648 105.97 24.3766 105.625 24.375H24.3748C24.0301 24.3766 23.6913 24.4648 23.3895 24.6317C23.0878 24.7985 22.8329 25.0385 22.6483 25.3297L2.33578 57.8297C2.0987 58.2122 1.99411 58.6621 2.03817 59.11C2.08222 59.5579 2.27246 59.9788 2.57953 60.3078L63.9639 125.308C64.1553 125.509 64.386 125.67 64.6419 125.779C64.8977 125.887 65.1731 125.943 65.4511 125.941C65.7291 125.939 66.0038 125.88 66.2581 125.767C66.5124 125.655 66.7409 125.492 66.9295 125.287L127.42 60.2875C127.725 59.9616 127.914 59.5442 127.958 59.0999C128.003 58.6556 127.899 58.2092 127.664 57.8297ZM101.969 28.4375L85.3123 55.0672L68.6561 28.4375H101.969ZM81.6561 56.875H48.3436L64.9998 30.2453L81.6561 56.875ZM61.3436 28.4375L44.6873 55.0672L28.0311 28.4375H61.3436ZM24.3748 30.2453L41.0311 56.875H7.71859L24.3748 30.2453ZM8.77484 60.9375H43.2045L60.2264 115.416L8.77484 60.9375ZM64.9998 117.102L47.4498 60.9375H82.5498L64.9998 117.102ZM69.3873 116.695L86.7952 60.9375H121.265L69.3873 116.695ZM88.9686 56.875L105.625 30.2453L122.281 56.875H88.9686Z" fill="url(#paint0_linear_55_383)"/>
<defs>
<linearGradient id="paint0_linear_55_383" x1="64.9984" y1="4.0625" x2="64.9984" y2="125.941" gradientUnits="userSpaceOnUse">
<stop stop-color="#9A11EE"/>
<stop offset="1" stop-color="#F2A7AD"/>
</linearGradient>
</defs>
</svg>
