<svg width="130" height="130" viewBox="0 0 130 130" fill="none" xmlns="http://www.w3.org/2000/svg">
<path d="M112.354 77.0298C111.365 77.0321 110.387 77.2296 109.475 77.6108C108.563 77.992 107.736 78.5494 107.04 79.2512C106.344 79.953 105.794 80.7852 105.42 81.7002C105.046 82.6152 104.857 83.595 104.863 84.5833V92.9579C104.102 97.4446 100.219 101.598 93.7531 104.948C86.1235 108.901 75.9035 111.074 65.0317 111.074C54.16 111.074 43.8923 108.899 36.2642 104.947C29.7967 101.596 25.8984 97.4444 25.1367 92.9579V84.5833C25.1367 82.5967 24.3476 80.6916 22.9429 79.2869C21.5382 77.8822 19.633 77.093 17.6465 77.093C15.66 77.093 13.7548 77.8822 12.3501 79.2869C10.9454 80.6916 10.1563 82.5967 10.1562 84.5833V124.499C10.1579 124.761 10.2123 125.02 10.316 125.261C10.4198 125.502 10.5708 125.72 10.7602 125.901C10.9497 126.083 11.1736 126.225 11.4187 126.318C11.6639 126.411 11.9253 126.455 12.1875 126.445H23.2324C23.488 126.452 23.7423 126.406 23.9793 126.31C24.2164 126.215 24.431 126.071 24.6098 125.888C24.7886 125.705 24.9277 125.487 25.0184 125.248C25.109 125.009 25.1493 124.754 25.1367 124.499V101.67C27.4219 104.223 30.5127 106.551 34.3789 108.554C42.5753 112.8 53.4595 115.134 64.9693 115.134C76.4791 115.134 87.4108 112.8 95.6071 108.554C99.4713 106.551 102.578 104.223 104.863 101.67V124.499C104.851 124.754 104.891 125.009 104.982 125.248C105.072 125.487 105.211 125.705 105.39 125.888C105.569 126.071 105.784 126.215 106.021 126.31C106.258 126.406 106.512 126.452 106.768 126.445H117.812C118.075 126.455 118.336 126.411 118.581 126.318C118.826 126.225 119.05 126.083 119.24 125.901C119.429 125.72 119.58 125.502 119.684 125.261C119.788 125.02 119.842 124.761 119.844 124.499V84.5833C119.85 83.595 119.661 82.6152 119.287 81.7002C118.913 80.7852 118.363 79.953 117.667 79.2512C116.971 78.5494 116.144 77.992 115.232 77.6108C114.32 77.2296 113.342 77.0321 112.354 77.0298ZM17.6465 81.0923C18.1015 81.0941 18.5516 81.1861 18.9708 81.3629C19.39 81.5397 19.77 81.798 20.0887 82.1226C20.4075 82.4473 20.6587 82.8319 20.8279 83.2543C20.997 83.6766 21.0808 84.1283 21.0742 84.5833V89.6289H14.2188V84.5833C14.2122 84.1283 14.2959 83.6766 14.4651 83.2543C14.6342 82.8319 14.8855 82.4473 15.2042 82.1226C15.523 81.798 15.903 81.5397 16.3222 81.3629C16.7414 81.1861 17.1915 81.0941 17.6465 81.0923ZM14.2188 122.383V93.6914H21.0742V122.383H14.2188ZM112.354 81.0923C112.808 81.0941 113.259 81.1861 113.678 81.3629C114.097 81.5397 114.477 81.798 114.796 82.1226C115.115 82.4473 115.366 82.8319 115.535 83.2543C115.704 83.6766 115.788 84.1283 115.781 84.5833V89.6289H108.926V84.5833C108.919 84.1283 109.003 83.6766 109.172 83.2543C109.341 82.8319 109.592 82.4473 109.911 82.1226C110.23 81.798 110.61 81.5397 111.029 81.3629C111.448 81.1861 111.899 81.0941 112.354 81.0923ZM108.926 122.383V93.6914H115.781V122.383H108.926ZM108.672 13.2031C108.672 12.6644 108.458 12.1477 108.077 11.7668C107.696 11.3859 107.179 11.1719 106.641 11.1719H23.3594C22.8207 11.1719 22.304 11.3859 21.9231 11.7668C21.5421 12.1477 21.3281 12.6644 21.3281 13.2031V63.2227C21.3281 63.7614 21.5421 64.278 21.9231 64.659C22.304 65.0399 22.8207 65.2539 23.3594 65.2539H106.641C107.179 65.2539 107.696 65.0399 108.077 64.659C108.458 64.278 108.672 63.7614 108.672 63.2227V13.2031ZM104.609 15.2344V35.9209L77.7304 50.5713C76.4493 51.2936 74.9794 51.6106 73.5145 51.4804C72.0496 51.3501 70.6586 50.7788 69.5251 49.8418L56.7067 39.1419C54.7979 37.5822 52.4361 36.6815 49.9735 36.5742C47.5109 36.4668 45.0796 37.1586 43.0424 38.5463L25.3906 50.2135V15.2344H104.609ZM25.3906 61.1914V55.0832L45.2969 41.9265L45.3289 41.9049C46.6367 41.0099 48.1989 40.5618 49.7823 40.6278C51.3657 40.6938 52.8853 41.2703 54.114 42.2711L66.9327 52.9712C68.6929 54.4318 70.8545 55.3244 73.1324 55.5312C75.4103 55.738 77.6973 55.2494 79.6918 54.1298L104.609 40.5488V61.1914H25.3906Z" fill="url(#paint0_linear_55_374)"/>
<path d="M73.0036 37.7878C78.4144 37.7878 82.8163 33.5395 82.8163 28.3171C82.8163 23.0948 78.4144 18.8464 73.0036 18.8464C67.5929 18.8464 63.1909 23.0948 63.1909 28.3171C63.1909 33.5395 67.5929 37.7878 73.0036 37.7878ZM73.0036 22.9089C76.1744 22.9089 78.7538 25.335 78.7538 28.3171C78.7538 31.2993 76.1744 33.7253 73.0036 33.7253C69.8329 33.7253 67.2534 31.2995 67.2534 28.3171C67.2534 25.3348 69.8329 22.9097 73.0036 22.9097V22.9089Z" fill="url(#paint1_linear_55_374)"/>
<path d="M116.289 5.58594C116.289 5.04722 116.075 4.53056 115.694 4.14963C115.313 3.76869 114.797 3.55469 114.258 3.55469H15.7422C15.2035 3.55469 14.6868 3.76869 14.3059 4.14963C13.9249 4.53056 13.7109 5.04722 13.7109 5.58594V70.8398C13.7109 71.3786 13.9249 71.8952 14.3059 72.2762C14.6868 72.6571 15.2035 72.8711 15.7422 72.8711H114.258C114.797 72.8711 115.313 72.6571 115.694 72.2762C116.075 71.8952 116.289 71.3786 116.289 70.8398V5.58594ZM17.7734 7.61719H112.227V68.8086H17.7734V7.61719Z" fill="url(#paint2_linear_55_374)"/>
<defs>
<linearGradient id="paint0_linear_55_374" x1="65.0001" y1="11.1719" x2="65.0001" y2="126.447" gradientUnits="userSpaceOnUse">
<stop stop-color="#9A11EE"/>
<stop offset="1" stop-color="#F2A7AD"/>
</linearGradient>
<linearGradient id="paint1_linear_55_374" x1="73.0036" y1="18.8464" x2="73.0036" y2="37.7878" gradientUnits="userSpaceOnUse">
<stop stop-color="#9A11EE"/>
<stop offset="1" stop-color="#F2A7AD"/>
</linearGradient>
<linearGradient id="paint2_linear_55_374" x1="65" y1="3.55469" x2="65" y2="72.8711" gradientUnits="userSpaceOnUse">
<stop stop-color="#9A11EE"/>
<stop offset="1" stop-color="#F2A7AD"/>
</linearGradient>
</defs>
</svg>
