<svg width="130" height="130" viewBox="0 0 130 130" fill="none" xmlns="http://www.w3.org/2000/svg">
<path d="M121.875 12.1875H8.125C6.50884 12.1875 4.95887 12.8295 3.81607 13.9723C2.67327 15.1151 2.03125 16.6651 2.03125 18.2812V111.719C2.03125 113.335 2.67327 114.885 3.81607 116.028C4.95887 117.17 6.50884 117.812 8.125 117.812H121.875C123.491 117.812 125.041 117.17 126.184 116.028C127.327 114.885 127.969 113.335 127.969 111.719V18.2812C127.969 16.6651 127.327 15.1151 126.184 13.9723C125.041 12.8295 123.491 12.1875 121.875 12.1875ZM123.906 111.719C123.906 112.257 123.692 112.774 123.311 113.155C122.93 113.536 122.414 113.75 121.875 113.75H8.125C7.58628 113.75 7.06962 113.536 6.68869 113.155C6.30776 112.774 6.09375 112.257 6.09375 111.719V32.5H123.906V111.719ZM123.906 28.4375H6.09375V18.2812C6.09375 17.7425 6.30776 17.2259 6.68869 16.8449C7.06962 16.464 7.58628 16.25 8.125 16.25H121.875C122.414 16.25 122.93 16.464 123.311 16.8449C123.692 17.2259 123.906 17.7425 123.906 18.2812V28.4375Z" fill="url(#paint0_linear_55_394)"/>
<path d="M10.1562 20.3125H42.6562V24.375H10.1562V20.3125ZM115.781 20.3125H119.844V24.375H115.781V20.3125ZM107.656 20.3125H111.719V24.375H107.656V20.3125ZM99.5312 20.3125H103.594V24.375H99.5312V20.3125ZM32.5 99.5312H97.5C98.0387 99.5312 98.5554 99.3172 98.9363 98.9363C99.3172 98.5554 99.5312 98.0387 99.5312 97.5V48.75C99.5312 48.2113 99.3172 47.6946 98.9363 47.3137C98.5554 46.9328 98.0387 46.7188 97.5 46.7188H32.5C31.9613 46.7188 31.4446 46.9328 31.0637 47.3137C30.6828 47.6946 30.4688 48.2113 30.4688 48.75V97.5C30.4688 98.0387 30.6828 98.5554 31.0637 98.9363C31.4446 99.3172 31.9613 99.5312 32.5 99.5312ZM34.5312 50.7812H95.4688V71.8047L87.8922 66.3813C87.1098 65.8196 86.1534 65.5542 85.1936 65.6324C84.2337 65.7105 83.3328 66.1271 82.6516 66.8078L66.5844 82.8953L50.7812 75.8266C50.1005 75.5259 49.3502 75.4181 48.6123 75.5148C47.8744 75.6115 47.1772 75.9091 46.5969 76.375L34.5312 85.9625V50.7812ZM34.5312 91.1625L49.0547 79.5438L66.1984 87.1609C66.574 87.3325 66.9929 87.3855 67.3993 87.3129C67.8058 87.2403 68.1805 87.0456 68.4734 86.7547L85.5359 69.6922L95.4688 76.7812V95.4688H34.5312V91.1625Z" fill="url(#paint1_linear_55_394)"/>
<path d="M59.9219 69.0625C61.328 69.0625 62.7025 68.6455 63.8716 67.8644C65.0408 67.0832 65.952 65.9728 66.4901 64.6738C67.0282 63.3747 67.169 61.9452 66.8946 60.5662C66.6203 59.1871 65.9432 57.9203 64.949 56.926C63.9547 55.9318 62.6879 55.2547 61.3088 54.9804C59.9298 54.706 58.5003 54.8468 57.2012 55.3849C55.9022 55.923 54.7918 56.8342 54.0106 58.0034C53.2295 59.1725 52.8125 60.547 52.8125 61.9531C52.8125 63.8387 53.5615 65.6469 54.8948 66.9802C56.2281 68.3135 58.0364 69.0625 59.9219 69.0625ZM59.9219 58.9063C60.5245 58.9063 61.1136 59.085 61.6146 59.4197C62.1157 59.7545 62.5062 60.2304 62.7368 60.7871C62.9674 61.3439 63.0278 61.9565 62.9102 62.5475C62.7926 63.1386 62.5025 63.6815 62.0763 64.1076C61.6502 64.5337 61.1073 64.8239 60.5163 64.9415C59.9253 65.059 59.3126 64.9987 58.7559 64.7681C58.1991 64.5375 57.7233 64.1469 57.3885 63.6459C57.0537 63.1448 56.875 62.5557 56.875 61.9531C56.875 61.145 57.196 60.3701 57.7674 59.7987C58.3388 59.2273 59.1138 58.9063 59.9219 58.9063Z" fill="url(#paint2_linear_55_394)"/>
<defs>
<linearGradient id="paint0_linear_55_394" x1="65" y1="12.1875" x2="65" y2="117.812" gradientUnits="userSpaceOnUse">
<stop stop-color="#9A11EE"/>
<stop offset="1" stop-color="#F2A7AD"/>
</linearGradient>
<linearGradient id="paint1_linear_55_394" x1="65" y1="20.3125" x2="65" y2="99.5312" gradientUnits="userSpaceOnUse">
<stop stop-color="#9A11EE"/>
<stop offset="1" stop-color="#F2A7AD"/>
</linearGradient>
<linearGradient id="paint2_linear_55_394" x1="59.9219" y1="54.8438" x2="59.9219" y2="69.0625" gradientUnits="userSpaceOnUse">
<stop stop-color="#9A11EE"/>
<stop offset="1" stop-color="#F2A7AD"/>
</linearGradient>
</defs>
</svg>
