<svg width="271" height="60" viewBox="0 0 271 60" fill="none" xmlns="http://www.w3.org/2000/svg">
<g clip-path="url(#clip0_54_304)">
<path d="M39.9304 35.9786C39.2763 35.2516 38.4307 34.7235 37.4905 34.4548L35.5273 33.8284L27.6374 31.3231V25.256C31.4328 23.2929 33.424 21.5167 34.0223 19.6471C34.3373 18.6436 34.2605 17.558 33.8072 16.6089C34.724 15.8679 35.4093 14.8798 35.7821 13.7615C36.1548 12.6432 36.1995 11.4416 35.9107 10.2988C35.7844 9.44114 35.4418 8.62979 34.9152 7.94122C34.3885 7.25265 33.6951 6.70952 32.9005 6.36317C32.9778 5.59697 32.8965 4.82308 32.6617 4.08969C32.4269 3.3563 32.0435 2.67912 31.5356 2.10033C30.8792 1.38253 30.0691 0.822245 29.1659 0.461277C28.2627 0.100309 27.2896 -0.0520207 26.3193 0.0156548H17.7936C16.3065 0.0186672 14.8541 0.464977 13.6218 1.29756C12.3896 2.13014 11.4336 3.31119 10.8759 4.6898C10.3205 6.08395 10.2709 7.62855 10.7357 9.05548C10.7591 9.12739 10.8009 9.19189 10.8572 9.24244L12.3997 10.7382L10.1561 16.1508C10.0957 16.2924 10.0658 16.4451 10.0685 16.5991C10.0711 16.753 10.1063 16.9046 10.1715 17.0441C10.2368 17.1835 10.3309 17.3076 10.4474 17.4082C10.5639 17.5088 10.7004 17.5836 10.8478 17.6278L12.6053 18.1513C12.6446 18.1657 12.678 18.1929 12.7 18.2285C12.7221 18.2641 12.7315 18.3061 12.7268 18.3476L12.1847 22.9189C12.1458 23.3047 12.1874 23.6943 12.3067 24.0631C12.426 24.4319 12.6205 24.772 12.8779 25.0619C13.1353 25.3518 13.45 25.5852 13.8021 25.7473C14.1542 25.9094 14.5361 25.9968 14.9237 26.0039H15.7837V30.4444L5.70632 35.885C4.54354 36.5104 3.66585 37.5591 3.25512 38.8139C2.84439 40.0686 2.9321 41.4333 3.50012 42.6251C4.20335 43.8458 5.12185 44.929 6.2111 45.8223C7.63604 47.0386 9.23324 48.0372 10.9507 48.7857C12.4774 49.4463 14.0781 49.9202 15.7183 50.1973V54.3479H14.475C13.8187 54.3503 13.1694 54.4827 12.5645 54.7372C11.9596 54.9917 11.4111 55.3635 10.9505 55.831C10.4899 56.2985 10.1264 56.8526 9.88101 57.4612C9.63553 58.0698 9.513 58.7211 9.52042 59.3773C9.52042 59.4988 9.56864 59.6153 9.65456 59.7012C9.74047 59.7871 9.85696 59.8354 9.97847 59.8354H34.3681C34.4897 59.8354 34.6061 59.7871 34.6921 59.7012C34.778 59.6153 34.8263 59.4988 34.8263 59.3773C34.8287 58.0674 34.3114 56.81 33.3877 55.881C32.4641 54.9521 31.2096 54.4277 29.8997 54.4227L28.9649 54.3666V49.1689C34.284 47.4863 38.5001 44.4948 40.1828 41.3351C41.2578 39.3439 41.1644 37.4088 39.9304 35.9786ZM17.0551 49.4681H16.7654C18.7004 42.1671 23.3652 36.7264 30.6382 33.2769L34.5925 34.5389C31.1241 38.684 28.6179 43.5464 27.2541 48.7763C23.925 49.6269 20.4685 49.8613 17.0551 49.4681ZM29.3762 32.8375C22.3089 36.474 17.7656 41.9708 15.8492 49.2905C14.4589 49.0566 13.0984 48.671 11.792 48.1407C15.6622 40.3909 20.7103 35.1465 27.2074 32.1551L29.3762 32.8375ZM4.31344 42.1858C3.86837 41.2035 3.81398 40.0886 4.16123 39.0676C4.50848 38.0467 5.23139 37.1963 6.18309 36.689L16.4662 31.08C16.5392 31.0412 16.6004 30.9834 16.6432 30.9126C16.686 30.8418 16.7088 30.7607 16.7092 30.6781V25.9104L21.0188 25.6674C21.6563 25.6298 22.2756 25.4406 22.8252 25.1153C23.3748 24.7902 23.8388 24.3384 24.1785 23.7977L27.226 18.8899C28.0789 18.8226 28.8712 18.4231 29.4322 17.7774C29.9045 17.2922 30.2397 16.6906 30.4039 16.0338C30.5681 15.377 30.5554 14.6884 30.3671 14.0381C30.3007 13.8539 30.2128 13.6782 30.1053 13.5146C31.6852 11.9908 32.3583 10.5699 32.2087 9.04608C32.1963 8.92212 32.1351 8.80814 32.0388 8.72929C31.9423 8.65037 31.8185 8.61304 31.6946 8.62543C31.5706 8.63781 31.4566 8.69896 31.3777 8.7954C31.2989 8.89178 31.2615 9.01563 31.2739 9.1396C31.3954 10.3455 30.8158 11.5234 29.4884 12.8135C28.9142 12.344 28.2159 12.0517 27.4785 11.9721C27.4171 11.9641 27.3547 11.9683 27.295 11.9845C27.2352 12.0006 27.1792 12.0283 27.1301 12.0661C27.0811 12.1038 27.04 12.1509 27.0091 12.2045C26.9782 12.2582 26.9583 12.3174 26.9503 12.3787C26.9423 12.4401 26.9465 12.5025 26.9626 12.5622C26.9787 12.622 27.0065 12.678 27.0442 12.7271C27.082 12.7761 27.1291 12.8172 27.1827 12.8481C27.2363 12.879 27.2956 12.899 27.357 12.907C27.8005 12.9238 28.2303 13.0651 28.5973 13.3148C28.9643 13.5644 29.2537 13.9122 29.4322 14.3185C29.5824 14.8132 29.6001 15.3385 29.4836 15.8421C29.3672 16.3458 29.1206 16.81 28.7686 17.1885C28.4672 17.5323 28.0743 17.7834 27.6357 17.9125C27.1971 18.0416 26.7308 18.0434 26.2912 17.9177C26.2335 17.9007 26.173 17.8955 26.1133 17.9023C26.0535 17.9093 25.9958 17.9281 25.9434 17.9577C25.8911 17.9874 25.8453 18.0273 25.8087 18.0749C25.7721 18.1227 25.7455 18.1773 25.7303 18.2355C25.6988 18.3545 25.7155 18.4811 25.7768 18.5879C25.838 18.6946 25.9389 18.7729 26.0575 18.8057H26.179L23.3746 23.2929C23.1218 23.7011 22.7772 24.0446 22.3682 24.2962C21.9592 24.5477 21.4971 24.7004 21.0188 24.7419L15.0546 25.0877C14.7748 25.111 14.4935 25.0711 14.2313 24.9707C13.9691 24.8703 13.7329 24.7123 13.5402 24.5082C13.3579 24.3113 13.2201 24.0775 13.1362 23.8226C13.0524 23.5677 13.0244 23.2978 13.054 23.0311L13.6056 18.4505C13.6347 18.1956 13.5741 17.9387 13.4342 17.7237C13.2943 17.5087 13.0838 17.3492 12.839 17.2726L11.1189 16.7491C11.0955 16.743 11.0739 16.7313 11.0561 16.715C11.0381 16.6988 11.0244 16.6784 11.0161 16.6556C11.0039 16.6326 10.9974 16.6069 10.9974 16.5808C10.9974 16.5548 11.0039 16.5291 11.0161 16.5061L13.3812 10.8036C13.4167 10.7188 13.4259 10.6254 13.4075 10.5353C13.3892 10.4453 13.3442 10.3629 13.2784 10.2988L11.6705 8.66282C11.2759 7.46678 11.3123 6.17034 11.7733 4.9983C12.2657 3.80502 13.1 2.78402 14.1712 2.06376C15.2425 1.34351 16.5028 0.956166 17.7936 0.950483H26.3379C27.1733 0.8899 28.0116 1.01715 28.7913 1.32289C29.571 1.62863 30.2724 2.10509 30.8439 2.71731C31.3138 3.24274 31.6562 3.86954 31.8443 4.54893C32.0324 5.22831 32.0611 5.94193 31.9283 6.63425C31.918 6.69456 31.9201 6.75643 31.9345 6.8159C31.949 6.87537 31.9755 6.93125 32.0124 6.98013C32.0489 7.0302 32.0949 7.0725 32.1479 7.10457C32.2008 7.13664 32.2596 7.15794 32.3209 7.16709C33.5081 7.34473 34.6112 8.70955 35.0132 10.4951C35.2857 11.5272 35.2355 12.618 34.8695 13.6208C34.5035 14.6235 33.8392 15.4902 32.9659 16.1041C32.871 16.1672 32.803 16.2636 32.7754 16.3742C32.7477 16.4849 32.7623 16.6019 32.8164 16.7023C33.0588 17.1021 33.2156 17.5477 33.2767 18.0112C33.3379 18.4747 33.302 18.9458 33.1716 19.3947C32.5452 21.3765 29.881 23.0499 27.6654 24.2277V23.5266C27.6654 23.4027 27.6162 23.2837 27.5285 23.1961C27.4409 23.1084 27.322 23.0592 27.198 23.0592C27.0741 23.0592 26.9551 23.1084 26.8675 23.1961C26.7798 23.2837 26.7306 23.4027 26.7306 23.5266V31.3698C20.084 34.4734 14.8956 39.8394 10.9507 47.7667C9.45622 47.0867 8.0652 46.1992 6.81878 45.1305C5.81353 44.311 4.9648 43.3166 4.31344 42.1951V42.1858ZM29.8716 55.3482C30.8602 55.3481 31.8144 55.7107 32.5535 56.3671C33.2927 57.0235 33.7654 57.9283 33.882 58.9099H10.4179C10.5202 57.9075 10.9927 56.9794 11.743 56.3069C12.4933 55.6344 13.4675 55.2659 14.475 55.2734H28.4974L29.8716 55.3482ZM28.0674 54.3573H16.6438V50.3375L16.9523 50.3843C17.9889 50.5006 19.0314 50.5568 20.0746 50.5525C22.6245 50.5478 25.1632 50.2148 27.628 49.5616L28.0674 49.4494V54.3573ZM39.3882 40.9051C37.9486 43.6161 33.9288 46.7104 28.4881 48.3837C28.4184 48.3899 28.3512 48.4123 28.2918 48.4491C29.6773 43.4209 32.1506 38.7584 35.5367 34.7913L37.2194 35.3241C37.9923 35.5428 38.6886 35.9735 39.2293 36.5675C39.7037 37.1841 39.974 37.9333 40.0025 38.7108C40.031 39.4884 39.8162 40.2554 39.3882 40.9051Z" fill="url(#paint0_linear_54_304)"/>
<path d="M75.607 59.0696H74.2669L68.8296 48.1185H53.5899L48.2675 59.0696H46.9274L61.2481 29.6624L75.607 59.0696ZM68.3701 47.008L61.1715 32.4193L54.126 47.008H68.3701ZM79.2632 41.8388H80.4885V45.821C80.9988 44.5702 81.7389 43.5874 82.7093 42.8727C83.7049 42.1579 84.8279 41.8005 86.0789 41.8005C86.8698 41.8005 87.6739 41.9664 88.4912 42.2983V43.715C87.7505 43.1534 86.9213 42.8727 86.0023 42.8727C85.0833 42.8727 84.1895 43.1534 83.322 43.715C82.4796 44.2767 81.7904 45.0297 81.2543 45.9742C80.7434 46.9187 80.4885 47.927 80.4885 48.9991V59.0696H79.2632V41.8388ZM97.6929 59.2993C95.8035 59.2993 94.2336 58.725 92.9832 57.5762C91.7579 56.4275 91.1452 54.8449 91.1452 52.8282V34.9082H92.3705V41.8388H97.6546V42.9109H92.3705V52.8282C92.3705 54.513 92.8683 55.8404 93.8639 56.8104C94.8845 57.7549 96.1613 58.2272 97.6929 58.2272V59.2993ZM123.418 59.8354C120.738 59.8354 118.274 59.1844 116.028 57.8826C113.782 56.5551 111.994 54.7427 110.667 52.4453C109.366 50.1223 108.715 47.5186 108.715 44.634C108.715 41.8515 109.391 39.3116 110.744 37.0142C112.122 34.7168 113.947 32.9044 116.22 31.5769C118.517 30.2495 120.954 29.5858 123.533 29.5858C125.32 29.5858 126.736 29.7517 127.783 30.0836C128.83 30.3899 130.042 30.9387 131.421 31.7301V33.1468C130.119 32.2534 128.906 31.628 127.783 31.2706C126.685 30.8877 125.307 30.6962 123.648 30.6962C121.121 30.6962 118.81 31.3472 116.717 32.6491C114.65 33.9254 113.003 35.6485 111.778 37.8183C110.578 39.9626 109.978 42.2727 109.978 44.7489C109.978 47.2505 110.591 49.5735 111.816 51.7178C113.041 53.862 114.662 55.5724 116.679 56.8487C118.721 58.0996 120.916 58.725 123.265 58.725C124.95 58.725 126.417 58.5335 127.668 58.1506C128.919 57.7421 130.17 57.1168 131.421 56.2744V57.6911C130.196 58.4314 128.932 58.9674 127.63 59.2993C126.353 59.6565 124.95 59.8354 123.418 59.8354ZM143.697 59.6822C141.96 59.6822 140.391 59.261 138.987 58.4186C137.583 57.5507 136.485 56.4148 135.694 55.0108C134.902 53.5813 134.507 52.0368 134.507 50.3776C134.507 48.7439 134.902 47.225 135.694 45.821C136.511 44.417 137.608 43.3066 138.987 42.4897C140.391 41.6474 141.948 41.2262 143.658 41.2262C145.343 41.2262 146.875 41.6474 148.253 42.4897C149.657 43.3066 150.755 44.417 151.546 45.821C152.337 47.225 152.733 48.7439 152.733 50.3776C152.733 52.0879 152.35 53.6579 151.585 55.0874C150.819 56.4914 149.747 57.6145 148.368 58.4569C147.015 59.2736 145.458 59.6822 143.697 59.6822ZM143.697 58.6101C145.152 58.6101 146.479 58.2399 147.679 57.4997C148.878 56.7594 149.81 55.7766 150.474 54.5513C151.163 53.3004 151.508 51.9348 151.508 50.4542C151.508 48.9991 151.163 47.6462 150.474 46.3954C149.785 45.1445 148.84 44.149 147.641 43.4087C146.44 42.6685 145.113 42.2983 143.658 42.2983C142.203 42.2983 140.863 42.6812 139.638 43.447C138.438 44.1873 137.48 45.1828 136.766 46.4337C136.077 47.6845 135.732 49.0374 135.732 50.4925C135.732 51.9475 136.077 53.3004 136.766 54.5513C137.48 55.7766 138.438 56.7594 139.638 57.4997C140.863 58.2399 142.216 58.6101 143.697 58.6101ZM163.102 59.4142C161.903 59.4142 160.805 59.1462 159.809 58.6101C158.814 58.0485 158.022 57.2699 157.435 56.2744C156.848 55.2788 156.555 54.1684 156.555 52.9431V30.3516H157.78V52.9431C157.78 53.9642 158.01 54.8832 158.469 55.7C158.954 56.5168 159.605 57.1678 160.422 57.6528C161.239 58.1123 162.132 58.342 163.102 58.342V59.4142ZM173.61 59.4142C172.41 59.4142 171.313 59.1462 170.317 58.6101C169.321 58.0485 168.53 57.2699 167.943 56.2744C167.355 55.2788 167.062 54.1684 167.062 52.9431V30.3516H168.288V52.9431C168.288 53.9642 168.517 54.8832 168.977 55.7C169.461 56.5168 170.112 57.1678 170.93 57.6528C171.746 58.1123 172.64 58.342 173.61 58.342V59.4142ZM184.796 58.4569C186.123 58.4569 187.387 58.1123 188.587 57.4231C189.787 56.7338 190.782 55.7893 191.574 54.5896V56.5424C190.629 57.589 189.595 58.3548 188.472 58.8398C187.349 59.2993 186.072 59.5291 184.643 59.5291C183.06 59.5291 181.567 59.1079 180.163 58.2655C178.785 57.4231 177.674 56.2999 176.832 54.8959C176.015 53.4919 175.607 51.9986 175.607 50.4159C175.607 48.7056 176.015 47.1739 176.832 45.821C177.648 44.4426 178.759 43.3704 180.163 42.6046C181.592 41.8388 183.175 41.4559 184.911 41.4559C187.566 41.4559 189.825 42.5025 191.689 44.5957L179.665 56.4658C180.508 57.155 181.324 57.6656 182.116 57.9974C182.907 58.3038 183.801 58.4569 184.796 58.4569ZM176.832 50.301C176.832 52.4198 177.534 54.2322 178.938 55.7383L190.157 44.5957C189.315 43.8555 188.497 43.3321 187.706 43.0258C186.915 42.6939 185.97 42.528 184.873 42.528C183.315 42.528 181.924 42.8727 180.699 43.5619C179.499 44.2256 178.555 45.1445 177.866 46.3188C177.176 47.4931 176.832 48.8204 176.832 50.301ZM203.636 59.5673C201.977 59.5673 200.445 59.1719 199.041 58.3803C197.662 57.589 196.565 56.5041 195.748 55.1256C194.931 53.7472 194.523 52.19 194.523 50.4542C194.523 48.846 194.931 47.3654 195.748 46.0125C196.565 44.634 197.675 43.5363 199.079 42.7195C200.509 41.9026 202.078 41.4942 203.789 41.4942C205.218 41.4942 206.444 41.7239 207.465 42.1834C208.486 42.6429 209.482 43.3577 210.452 44.3277V46.3954C209.609 45.1445 208.664 44.2001 207.618 43.5619C206.597 42.8982 205.321 42.5663 203.789 42.5663C202.385 42.5663 201.058 42.9365 199.807 43.6768C198.581 44.3915 197.598 45.3615 196.858 46.5868C196.118 47.8121 195.748 49.1268 195.748 50.5308C195.748 52.0624 196.105 53.4409 196.82 54.6662C197.535 55.8659 198.492 56.8104 199.692 57.4997C200.917 58.1633 202.232 58.4952 203.636 58.4952C206.495 58.4952 208.767 57.2061 210.452 54.6279V56.6956C209.533 57.6656 208.511 58.3931 207.388 58.8781C206.29 59.3376 205.04 59.5673 203.636 59.5673ZM220.006 59.2993C218.117 59.2993 216.547 58.725 215.296 57.5762C214.071 56.4275 213.458 54.8449 213.458 52.8282V34.9082H214.683V41.8388H219.967V42.9109H214.683V52.8282C214.683 54.513 215.181 55.8404 216.177 56.8104C217.198 57.7549 218.474 58.2272 220.006 58.2272V59.2993ZM224.72 37.8949C224.362 37.8949 224.044 37.7673 223.763 37.512C223.507 37.2567 223.38 36.9376 223.38 36.5547C223.38 36.1973 223.507 35.891 223.763 35.6357C224.044 35.3804 224.362 35.2528 224.72 35.2528C225.077 35.2528 225.384 35.3804 225.639 35.6357C225.92 35.891 226.06 36.1973 226.06 36.5547C226.06 36.9376 225.92 37.2567 225.639 37.512C225.384 37.7673 225.077 37.8949 224.72 37.8949ZM224.108 41.8388H225.333V59.0696H224.108V41.8388ZM239.236 59.6822C237.5 59.6822 235.93 59.261 234.526 58.4186C233.122 57.5507 232.025 56.4148 231.233 55.0108C230.442 53.5813 230.046 52.0368 230.046 50.3776C230.046 48.7439 230.442 47.225 231.233 45.821C232.05 44.417 233.148 43.3066 234.526 42.4897C235.93 41.6474 237.487 41.2262 239.198 41.2262C240.882 41.2262 242.414 41.6474 243.792 42.4897C245.197 43.3066 246.294 44.417 247.085 45.821C247.877 47.225 248.272 48.7439 248.272 50.3776C248.272 52.0879 247.89 53.6579 247.124 55.0874C246.358 56.4914 245.286 57.6145 243.907 58.4569C242.555 59.2736 240.997 59.6822 239.236 59.6822ZM239.236 58.6101C240.691 58.6101 242.019 58.2399 243.218 57.4997C244.418 56.7594 245.35 55.7766 246.013 54.5513C246.703 53.3004 247.047 51.9348 247.047 50.4542C247.047 48.9991 246.703 47.6462 246.013 46.3954C245.324 45.1445 244.379 44.149 243.18 43.4087C241.98 42.6685 240.653 42.2983 239.198 42.2983C237.743 42.2983 236.402 42.6812 235.177 43.447C233.978 44.1873 233.02 45.1828 232.305 46.4337C231.616 47.6845 231.271 49.0374 231.271 50.4925C231.271 51.9475 231.616 53.3004 232.305 54.5513C233.02 55.7766 233.978 56.7594 235.177 57.4997C236.402 58.2399 237.755 58.6101 239.236 58.6101ZM251.72 41.8388H252.946V45.6679C253.507 44.3915 254.464 43.3704 255.818 42.6046C257.17 41.8133 258.664 41.4176 260.298 41.4176C262.416 41.4176 264.088 42.0941 265.314 43.447C266.564 44.7744 267.19 46.6379 267.19 49.0374V59.0696H265.965V49.0374C265.965 46.9697 265.454 45.3615 264.433 44.2128C263.437 43.0641 262.033 42.4897 260.221 42.4897C258.893 42.4897 257.668 42.7961 256.545 43.4087C255.447 43.9958 254.567 44.8127 253.903 45.8593C253.265 46.9059 252.946 48.0929 252.946 49.4203V59.0696H251.72V41.8388Z" fill="url(#paint1_linear_54_304)"/>
</g>
<defs>
<linearGradient id="paint0_linear_54_304" x1="21.9637" y1="-1.36088e-08" x2="21.9637" y2="59.8354" gradientUnits="userSpaceOnUse">
<stop stop-color="#9A11EE"/>
<stop offset="1" stop-color="#F2A7AD"/>
</linearGradient>
<linearGradient id="paint1_linear_54_304" x1="157.882" y1="21.9756" x2="157.882" y2="66.8473" gradientUnits="userSpaceOnUse">
<stop stop-color="#9A11EE"/>
<stop offset="1" stop-color="#F2A7AD"/>
</linearGradient>
<clipPath id="clip0_54_304">
<rect width="270.19" height="59.8354" fill="white"/>
</clipPath>
</defs>
</svg>
