<svg width="130" height="130" viewBox="0 0 130 130" fill="none" xmlns="http://www.w3.org/2000/svg">
<path d="M124.585 80.6744C124.165 80.2801 123.79 79.9315 123.452 79.6181C122.128 78.39 121.463 77.7733 121.136 77.2058C120.808 76.6383 120.606 75.7547 120.204 73.9939C120.102 73.5447 119.988 73.0448 119.856 72.4839C119.111 69.3032 116.419 67.0442 113.157 66.8627C112.642 66.8342 112.126 66.8074 111.61 66.7824C109.806 66.6925 108.901 66.6473 108.285 66.4231C107.669 66.1992 106.947 65.6515 105.507 64.561C105.14 64.283 104.731 63.9732 104.27 63.6281C101.655 61.6705 98.1405 61.6705 95.5253 63.6281C95.1122 63.9379 94.6999 64.2487 94.2885 64.5607C92.8489 65.6515 92.1263 66.199 91.5103 66.4231C91.2526 66.5171 90.9428 66.5793 90.5388 66.6268C83.8768 60.6463 75.9009 56.5228 67.3242 54.537C76.6009 50.083 83.0212 40.5953 83.0212 29.6357C83.0214 14.4145 70.6382 2.03125 55.417 2.03125C40.1958 2.03125 27.8126 14.4145 27.8126 29.6357C27.8126 40.5958 34.2334 50.084 43.5108 54.5378C34.8714 56.5398 26.8287 60.7092 20.1431 66.7552C10.5317 75.4472 4.48214 87.2998 3.10927 100.13C3.07883 100.413 3.10839 100.7 3.19602 100.971C3.28365 101.242 3.42739 101.492 3.61789 101.704C3.80838 101.916 4.04137 102.085 4.30169 102.201C4.56201 102.317 4.84384 102.377 5.12884 102.377L55.4134 102.377L55.4167 102.377L55.42 102.377H75.8808C76.6001 104.041 77.9337 105.415 79.7064 106.174C80.2358 106.401 80.7086 106.6 81.1329 106.779C81.349 106.87 81.5503 106.955 81.7395 107.035L76.0794 119.192C75.8857 119.606 75.8096 120.065 75.8594 120.52C75.9092 120.974 76.0831 121.406 76.362 121.769C76.6394 122.132 77.0114 122.412 77.4373 122.578C77.8631 122.743 78.3264 122.789 78.7764 122.709L84.4885 121.711L87.4018 126.725C87.6306 127.121 87.9639 127.446 88.3651 127.665C88.7663 127.884 89.22 127.988 89.6766 127.966C90.1333 127.946 90.5757 127.801 90.9556 127.547C91.3354 127.292 91.6379 126.939 91.8302 126.524L97.4001 114.56C98.6407 114.181 99.3453 113.991 99.8978 113.991C100.45 113.991 101.155 114.181 102.396 114.56L107.965 126.524C108.166 126.956 108.486 127.322 108.888 127.578C109.29 127.835 109.757 127.97 110.234 127.969C110.671 127.97 111.101 127.855 111.481 127.636C111.86 127.418 112.175 127.104 112.394 126.725L115.307 121.711L121.019 122.71C121.47 122.789 121.933 122.743 122.359 122.577C122.785 122.411 123.157 122.131 123.435 121.767C123.713 121.405 123.887 120.973 123.936 120.519C123.986 120.064 123.91 119.605 123.716 119.191L118.056 107.035C118.245 106.955 118.446 106.87 118.663 106.779C119.139 106.579 119.614 106.377 120.089 106.174C123.092 104.888 124.849 101.844 124.461 98.6004C124.393 98.0284 124.329 97.5196 124.272 97.0625C124.047 95.2705 123.934 94.3711 124.048 93.7257C124.162 93.0803 124.576 92.2736 125.4 90.6666C125.61 90.2568 125.844 89.8006 126.104 89.2866C127.578 86.371 126.968 82.9103 124.585 80.6744ZM73.6919 89.2866C73.9516 89.8006 74.1857 90.2568 74.3957 90.6669C75.2199 92.2741 75.6335 93.0805 75.7473 93.7259C75.861 94.3714 75.7483 95.2707 75.5236 97.0628C75.4761 97.4416 75.424 97.8583 75.3687 98.3145H59.9932L65.117 92.6499C65.3311 92.4131 65.4864 92.1292 65.5703 91.8212C65.6542 91.5132 65.6643 91.1898 65.5999 90.8771L62.9893 78.2204L63.4971 78.8224C63.7086 79.0734 63.9778 79.2694 64.2817 79.3935C64.5856 79.5177 64.915 79.5664 65.2418 79.5353C65.5686 79.5043 65.883 79.3945 66.1581 79.2154C66.4331 79.0363 66.6607 78.7931 66.8212 78.5068L76.1502 61.8815C79.2294 63.338 82.1463 65.1153 84.8524 67.1841C82.425 67.9364 80.5431 69.9075 79.9393 72.4846C79.8077 73.0453 79.6937 73.5455 79.5914 73.9944C79.1897 75.7552 78.9881 76.6391 78.6603 77.2065C78.3325 77.774 77.6681 78.3908 76.344 79.6189C75.9649 79.9697 75.587 80.3218 75.2103 80.6752C72.8284 82.91 72.2182 86.371 73.6919 89.2866ZM46.1212 73.9621L38.4413 60.2761C39.8722 59.7452 41.3275 59.2824 42.8022 58.8892L52.4991 66.3998L46.1212 73.9621ZM53.3352 71.7095L55.4167 69.2412L57.498 71.7092L61.4127 90.6887L55.4165 97.3179L49.4202 90.6887L53.3352 71.7095ZM58.3349 66.3998L68.0212 58.8976C69.4964 59.2933 70.952 59.7588 72.383 60.2926L64.7125 73.9621L58.3349 66.3998ZM31.8751 29.6357C31.8751 16.6547 42.436 6.09375 55.417 6.09375C68.398 6.09375 78.9589 16.6547 78.9589 29.6357C78.9589 42.6133 68.4035 53.172 55.4272 53.1776H55.4066C42.4305 53.1718 31.8751 42.6133 31.8751 29.6357ZM55.417 57.2401H55.4272C57.8953 57.2412 60.3599 57.4295 62.7996 57.8033L55.4167 63.5215L48.0281 57.7987C50.4701 57.4274 52.9366 57.2407 55.4066 57.2401H55.417ZM34.6724 61.861L44.0128 78.5063C44.1734 78.7925 44.401 79.0356 44.6761 79.2146C44.9511 79.3937 45.2655 79.5034 45.5922 79.5345C45.919 79.5655 46.2484 79.5169 46.5522 79.3928C46.8561 79.2687 47.1253 79.0728 47.3369 78.8219L47.8445 78.2201L45.2338 90.8769C45.1693 91.1896 45.1794 91.513 45.2633 91.8211C45.3472 92.1292 45.5026 92.4131 45.7168 92.6499L50.8406 98.3145L7.44142 98.3148C9.95204 81.9802 20.4432 68.562 34.6724 61.861ZM89.4107 122.096L87.2901 118.446C87.0813 118.087 86.7676 117.801 86.391 117.625C86.0145 117.45 85.5933 117.394 85.1842 117.466L81.0265 118.192L85.1068 109.428C85.3807 109.827 85.7022 110.325 86.1084 110.953C86.3583 111.34 86.6365 111.771 86.9516 112.253C88.2247 114.2 90.2664 115.364 92.465 115.535L89.4107 122.096ZM114.612 117.466C114.203 117.394 113.781 117.45 113.405 117.625C113.028 117.8 112.714 118.087 112.506 118.446L110.385 122.095L107.332 115.538C109.531 115.367 111.572 114.199 112.844 112.253C113.159 111.771 113.438 111.34 113.687 110.953C114.094 110.324 114.415 109.827 114.689 109.428L118.769 118.192L114.612 117.466ZM122.478 87.4539C122.248 87.9076 122.017 88.3606 121.785 88.8129C119.761 92.7591 119.69 93.1681 120.241 97.568C120.298 98.018 120.361 98.5192 120.428 99.0823C120.603 100.543 119.842 101.86 118.49 102.439C117.968 102.662 117.503 102.859 117.085 103.035C112.999 104.757 112.68 105.024 110.275 108.75C110.029 109.13 109.755 109.555 109.444 110.03C108.64 111.26 107.209 111.781 105.802 111.355C105.259 111.191 104.777 111.042 104.343 110.908C102.224 110.254 101.061 109.928 99.8981 109.928C98.7349 109.928 97.5715 110.255 95.4529 110.908C95.0195 111.042 94.5371 111.191 93.994 111.355C92.5866 111.78 91.1566 111.26 90.3517 110.03C90.0412 109.555 89.7675 109.13 89.5214 108.75C87.1157 105.024 86.7975 104.757 82.7112 103.035C82.2422 102.838 81.7739 102.639 81.3063 102.439C79.9545 101.86 79.1938 100.543 79.3682 99.0823C79.4355 98.5192 79.4985 98.018 79.5548 97.568C80.1066 93.1681 80.0347 92.7591 78.0108 88.8129C77.8039 88.4094 77.5736 87.96 77.3177 87.4539C76.6542 86.1415 76.9185 84.6429 77.9905 83.6367C78.3616 83.2888 78.7337 82.9421 79.107 82.5965C82.358 79.5808 82.5657 79.221 83.5521 74.8973C83.6529 74.4552 83.7654 73.9629 83.8946 73.4106C84.23 71.9786 85.3957 71.0006 86.864 70.9191C87.4305 70.8873 87.935 70.8624 88.388 70.8398C92.8169 70.6192 93.2071 70.477 96.7423 67.7988C97.1036 67.5251 97.506 67.2202 97.96 66.8802C99.1376 65.9989 100.659 65.9991 101.836 66.8802C102.29 67.2199 102.693 67.5251 103.054 67.7991C106.589 70.4768 106.979 70.6189 111.408 70.8396C111.861 70.8622 112.366 70.8873 112.932 70.9188C114.4 71.0003 115.566 71.9784 115.902 73.4104C116.031 73.9626 116.143 74.4552 116.244 74.8973C117.231 79.2205 117.438 79.5803 120.689 82.5962C121.022 82.9047 121.392 83.248 121.806 83.6362C122.878 84.643 123.142 86.1415 122.478 87.4539ZM99.8978 73.6524C91.5121 73.6524 84.6896 80.4748 84.6896 88.8603C84.6896 97.2458 91.5121 104.068 99.8978 104.068C108.284 104.068 115.106 97.2461 115.106 88.8606C115.106 80.4751 108.284 73.6524 99.8978 73.6524ZM99.8978 100.006C93.752 100.006 88.7521 95.0061 88.7521 88.8606C88.7521 82.715 93.752 77.7151 99.8978 77.7151C106.044 77.7151 111.044 82.715 111.044 88.8606C111.044 95.0061 106.044 100.006 99.8978 100.006Z" fill="url(#paint0_linear_55_391)"/>
<defs>
<linearGradient id="paint0_linear_55_391" x1="64.9988" y1="2.03125" x2="64.9988" y2="127.969" gradientUnits="userSpaceOnUse">
<stop stop-color="#9A11EE"/>
<stop offset="1" stop-color="#F2A7AD"/>
</linearGradient>
</defs>
</svg>
